<?xml version='1.0' encoding='utf-8'?>
<svg xmlns="http://www.w3.org/2000/svg" viewBox="0 0 640 480">
 <path d="m110.76 277.96l60.719 154.74 160.82 1.098 57.437-154.74-278.98-1.098h8e-6z" fill="#ff007f" fill-rule="evenodd" stroke-width="0"/>
 <g stroke-linecap="round" stroke-linejoin="round">
  <g fill="#fff" stroke-dasharray="null" stroke-width="99">
   <rect transform="rotate(-14.546 167.25 352.94)" x="166.02" y="271.23" width="2.4609" height="163.42"/>
   <rect transform="rotate(-7.684 208.5 350.63)" x="207.27" y="268.91" width="2.4609" height="163.42"/>
   <rect transform="rotate(-1.302 251.63 350)" x="250.39" y="268.29" width="2.4609" height="163.42"/>
   <rect transform="rotate(4.0856 293.5 350.62)" x="292.27" y="268.91" width="2.4609" height="163.42"/>
   <rect transform="rotate(14.518 333.13 353.75)" x="331.89" y="272.04" width="2.4609" height="163.42"/>
  </g>
  <g stroke-width="5.798">
   <g fill="#ffd4aa" fill-rule="evenodd">
    <path d="m164.96 248.7c0 21.697-19.187 39.286-42.857 39.286-23.669 0-42.857-17.589-42.857-39.286 0-21.696 19.188-39.285 42.857-39.285 23.67 0 42.857 17.589 42.857 39.285z"/>
    <path d="m216.39 254.41c0 21.697-19.188 39.285-42.857 39.285-23.67 0-42.857-17.588-42.857-39.285s19.187-39.286 42.857-39.286c23.669 0 42.857 17.589 42.857 39.286z"/>
    <path d="m275.11 255.48c0 21.697-19.188 39.286-42.857 39.286s-42.857-17.589-42.857-39.286 19.188-39.286 42.857-39.286 42.857 17.589 42.857 39.286z"/>
    <path d="m323.54 254.2c0 21.697-19.188 39.286-42.857 39.286-23.67 0-42.858-17.589-42.858-39.286 0-21.696 19.188-39.285 42.858-39.285 23.669 0 42.857 17.589 42.857 39.285z"/>
    <path d="m367.82 253.34c0 21.697-19.187 39.286-42.857 39.286-23.669 0-42.857-17.589-42.857-39.286s19.188-39.285 42.857-39.285c23.67 0 42.857 17.588 42.857 39.285z"/>
    <path d="m416.75 247.55c0 21.696-19.188 39.285-42.857 39.285s-42.857-17.589-42.857-39.285c0-21.697 19.188-39.286 42.857-39.286s42.857 17.589 42.857 39.286z"/>
    <path d="m249.76 99.624c-22.569 0 19.406 16.322-42.75 30.375s-103.96 52.048-104.41 98.188h297.16c-0.45599-46.881-45.693-86.372-107.34-98.781-2.025-16.697-20.352-29.782-42.657-29.782h-1.5e-5z"/>
   </g>
   <g stroke-dasharray="null">
    <circle cx="122.5" cy="190.75" r="3.1176" fill="#6700bc"/>
    <circle cx="135.75" cy="178.75" r="3.1176" fill="#ff0"/>
    <circle cx="290.5" cy="220.25" r="3.1176" fill="#ff7f00"/>
    <circle cx="277.25" cy="124.25" r="3.1176" fill="#0f0"/>
    <circle cx="233.62" cy="158.37" r="3.1176" fill="#bf00bf"/>
    <circle cx="214" cy="206.25" r="3.1176" fill="#6700bc"/>
    <circle cx="188" cy="171.75" r="3.1176" fill="#f42c2c"/>
    <circle cx="218.25" cy="130.75" r="3.1176" fill="#ff0"/>
    <circle cx="235" cy="193.75" r="3.1176" fill="#ff7f00"/>
    <circle cx="192.75" cy="204.75" r="3.1176" fill="#0f0"/>
    <circle cx="231.75" cy="139.5" r="3.1176"/>
    <circle cx="180" cy="165" r="3.1176" fill="#fff"/>
    <circle cx="193.12" cy="185.87" r="3.1176" fill="#bf00bf"/>
    <circle cx="212.5" cy="144.75" r="3.1176" fill="#6700bc"/>
    <circle cx="232" cy="177.25" r="3.1176" fill="#f42c2c"/>
    <circle cx="219.75" cy="192.25" r="3.1176" fill="#ff0"/>
    <circle cx="198" cy="160.75" r="3.1176" fill="#ff7f00"/>
    <circle cx="216.75" cy="162.25" r="3.1176" fill="#0f0"/>
    <circle cx="210.25" cy="179.5" r="3.1176"/>
    <circle cx="203" cy="197.5" r="3.1176" fill="#fff"/>
    <circle cx="359.62" cy="241.37" r="3.1176" fill="#bf00bf"/>
    <circle cx="329.5" cy="276.25" r="3.1176" fill="#6700bc"/>
    <circle cx="303.5" cy="241.75" r="3.1176" fill="#f42c2c"/>
    <circle cx="333.75" cy="200.75" r="3.1176" fill="#ff0"/>
    <circle cx="350.5" cy="263.75" r="3.1176" fill="#ff7f00"/>
    <circle cx="308.25" cy="274.75" r="3.1176" fill="#0f0"/>
    <circle cx="342.25" cy="275" r="3.1176"/>
    <circle cx="295.5" cy="235" r="3.1176" fill="#fff"/>
    <circle cx="308.62" cy="255.87" r="3.1176" fill="#bf00bf"/>
    <circle cx="328" cy="214.75" r="3.1176" fill="#6700bc"/>
    <circle cx="347.5" cy="247.25" r="3.1176" fill="#f42c2c"/>
    <circle cx="335.25" cy="262.25" r="3.1176" fill="#ff0"/>
    <circle cx="313.5" cy="230.75" r="3.1176" fill="#ff7f00"/>
    <circle cx="332.25" cy="232.25" r="3.1176" fill="#0f0"/>
    <circle cx="325.75" cy="249.5" r="3.1176"/>
    <circle cx="318.5" cy="267.5" r="3.1176" fill="#fff"/>
    <circle transform="rotate(-66.843 135.46 218.5)" cx="135.46" cy="218.5" r="3.1176" fill="#bf00bf"/>
    <circle transform="rotate(-66.843 173.76 267.87)" cx="173.76" cy="267.87" r="3.1176" fill="#6700bc"/>
    <circle transform="rotate(-66.843 129.82 265.71)" cx="129.82" cy="265.71" r="3.1176" fill="#f42c2c"/>
    <circle transform="rotate(-66.843 104.02 221.77)" cx="104.02" cy="221.77" r="3.1176" fill="#ff0"/>
    <circle transform="rotate(-66.843 168.53 231.15)" cx="168.53" cy="231.15" r="3.1176" fill="#ff7f00"/>
    <circle transform="rotate(-66.843 162.03 274.32)" cx="162.03" cy="274.32" r="3.1176" fill="#0f0"/>
    <circle transform="rotate(-66.843 117.37 212.8)" cx="117.37" cy="212.8" r="3.1176"/>
    <circle transform="rotate(-66.843 120.47 270.41)" cx="120.47" cy="270.41" r="3.1176" fill="#fff"/>
    <circle transform="rotate(-66.843 144.82 266.55)" cx="144.82" cy="266.55" r="3.1176" fill="#bf00bf"/>
    <circle transform="rotate(-66.843 114.63 232.56)" cx="114.63" cy="232.56" r="3.1176" fill="#6700bc"/>
    <circle transform="rotate(-66.843 152.18 227.41)" cx="152.18" cy="227.41" r="3.1176" fill="#f42c2c"/>
    <circle transform="rotate(-66.843 161.15 244.58)" cx="161.15" cy="244.58" r="3.1176" fill="#ff0"/>
    <circle transform="rotate(-66.843 123.64 252.19)" cx="123.64" cy="252.19" r="3.1176" fill="#ff7f00"/>
    <circle transform="rotate(-66.843 132.39 235.54)" cx="132.39" cy="235.54" r="3.1176" fill="#0f0"/>
    <circle transform="rotate(-66.843 145.7 248.3)" cx="145.7" cy="248.3" r="3.1176"/>
    <circle transform="rotate(-66.843 159.39 262.04)" cx="159.39" cy="262.04" r="3.1176" fill="#fff"/>
    <g transform="rotate(69.775 244.5 232)">
     <circle cx="270.62" cy="221.87" r="3.1176" fill="#bf00bf"/>
     <circle cx="251" cy="269.75" r="3.1176" fill="#6700bc"/>
     <circle cx="225" cy="235.25" r="3.1176" fill="#f42c2c"/>
     <circle cx="255.25" cy="194.25" r="3.1176" fill="#ff0"/>
     <circle cx="272" cy="257.25" r="3.1176" fill="#ff7f00"/>
     <circle cx="229.75" cy="268.25" r="3.1176" fill="#0f0"/>
     <circle cx="268.75" cy="203" r="3.1176"/>
     <circle cx="217" cy="228.5" r="3.1176" fill="#fff"/>
     <circle cx="230.12" cy="249.37" r="3.1176" fill="#bf00bf"/>
     <circle cx="249.5" cy="208.25" r="3.1176" fill="#6700bc"/>
     <circle cx="269" cy="240.75" r="3.1176" fill="#f42c2c"/>
     <circle cx="256.75" cy="255.75" r="3.1176" fill="#ff0"/>
     <circle cx="235" cy="224.25" r="3.1176" fill="#ff7f00"/>
     <circle cx="253.75" cy="225.75" r="3.1176" fill="#0f0"/>
     <circle cx="247.25" cy="243" r="3.1176"/>
     <circle cx="240" cy="261" r="3.1176" fill="#fff"/>
    </g>
    <g transform="rotate(-42.055 288 184.5)">
     <circle cx="314.12" cy="174.37" r="3.1176" fill="#bf00bf"/>
     <circle cx="294.5" cy="222.25" r="3.1176" fill="#6700bc"/>
     <circle cx="268.5" cy="187.75" r="3.1176" fill="#f42c2c"/>
     <circle cx="298.75" cy="146.75" r="3.1176" fill="#ff0"/>
     <circle cx="315.5" cy="209.75" r="3.1176" fill="#ff7f00"/>
     <circle cx="273.25" cy="220.75" r="3.1176" fill="#0f0"/>
     <circle cx="312.25" cy="155.5" r="3.1176"/>
     <circle cx="260.5" cy="181" r="3.1176" fill="#fff"/>
     <circle cx="273.62" cy="201.87" r="3.1176" fill="#bf00bf"/>
     <circle cx="293" cy="160.75" r="3.1176" fill="#6700bc"/>
     <circle cx="312.5" cy="193.25" r="3.1176" fill="#f42c2c"/>
     <circle cx="300.25" cy="208.25" r="3.1176" fill="#ff0"/>
     <circle cx="278.5" cy="176.75" r="3.1176" fill="#ff7f00"/>
     <circle cx="297.25" cy="178.25" r="3.1176" fill="#0f0"/>
     <circle cx="290.75" cy="195.5" r="3.1176"/>
     <circle cx="283.5" cy="213.5" r="3.1176" fill="#fff"/>
    </g>
    <circle cx="250" cy="141.25" r="3.1176" fill="#ff7f00"/>
    <circle cx="310.5" cy="154" r="3.1176" fill="#fff"/>
    <g transform="rotate(-29.222 157.31 195)">
     <circle cx="184.12" cy="184.87" r="3.1176" fill="#bf00bf"/>
     <circle cx="138.5" cy="198.25" r="3.1176" fill="#f42c2c"/>
     <circle cx="182.25" cy="166" r="3.1176"/>
     <circle cx="130.5" cy="191.5" r="3.1176" fill="#fff"/>
     <circle cx="143.62" cy="212.37" r="3.1176" fill="#bf00bf"/>
     <circle cx="163" cy="171.25" r="3.1176" fill="#6700bc"/>
     <circle cx="182.5" cy="203.75" r="3.1176" fill="#f42c2c"/>
     <circle cx="170.25" cy="218.75" r="3.1176" fill="#ff0"/>
     <circle cx="148.5" cy="187.25" r="3.1176" fill="#ff7f00"/>
     <circle cx="167.25" cy="188.75" r="3.1176" fill="#0f0"/>
     <circle cx="160.75" cy="206" r="3.1176"/>
     <circle cx="153.5" cy="224" r="3.1176" fill="#fff"/>
    </g>
    <circle transform="rotate(128.36 344.11 189.31)" cx="344.11" cy="189.31" r="3.1176" fill="#bf00bf"/>
    <circle transform="rotate(128.36 258.07 151.05)" cx="258.07" cy="151.05" r="3.1176"/>
    <circle transform="rotate(128.36 367.9 181.2)" cx="367.91" cy="181.2" r="3.1176" fill="#6700bc"/>
    <circle transform="rotate(128.36 330.32 176.32)" cx="330.32" cy="176.32" r="3.1176" fill="#f42c2c"/>
    <circle transform="rotate(128.36 326.16 157.4)" cx="326.16" cy="157.4" r="3.1176" fill="#ff0"/>
    <circle transform="rotate(128.36 351.55 173.67)" cx="351.55" cy="173.67" r="3.1176" fill="#0f0"/>
    <circle transform="rotate(128.36 342.05 157.87)" cx="342.05" cy="157.87" r="3.1176"/>
    <circle cx="185.5" cy="258.75" r="3.1176" fill="#f42c2c"/>
    <circle cx="177.5" cy="252" r="3.1176" fill="#fff"/>
    <circle cx="190.62" cy="272.87" r="3.1176" fill="#bf00bf"/>
    <circle cx="217.25" cy="279.25" r="3.1176" fill="#ff0"/>
    <circle cx="207.75" cy="266.5" r="3.1176"/>
    <circle cx="97" cy="264.5" r="3.1176" fill="#fff"/>
    <circle cx="379.75" cy="278.5" r="3.1176" fill="#7f007f"/>
    <g fill="#0ff">
     <circle cx="251" cy="166.25" r="3.1176"/>
     <circle cx="243" cy="159.5" r="3.1176"/>
     <circle cx="256.12" cy="180.37" r="3.1176"/>
     <circle cx="282.75" cy="186.75" r="3.1176"/>
     <circle cx="273.25" cy="174" r="3.1176"/>
    </g>
    <g transform="rotate(-1.581 106.38 246.13)">
     <circle cx="94.5" cy="239.25" r="3.1176" fill="#f42c2c"/>
     <circle cx="86.5" cy="232.5" r="3.1176" fill="#fff"/>
     <circle cx="99.625" cy="253.37" r="3.1176" fill="#bf00bf"/>
     <circle cx="126.25" cy="259.75" r="3.1176" fill="#ff0"/>
     <circle cx="116.75" cy="247" r="3.1176"/>
    </g>
    <g transform="rotate(121.55 277.88 269.62)" fill="#fff">
     <circle cx="266" cy="262.75" r="3.1176"/>
     <circle cx="258" cy="256" r="3.1176"/>
     <circle cx="271.12" cy="276.87" r="3.1176"/>
     <circle cx="297.75" cy="283.25" r="3.1176"/>
     <circle cx="288.25" cy="270.5" r="3.1176"/>
    </g>
    <circle cx="197.12" cy="149.37" r="3.1176" fill="#bf00bf"/>
    <circle cx="89.25" cy="255" r="3.1176"/>
    <circle cx="106.5" cy="271.25" r="3.1176" fill="#f42c2c"/>
    <circle cx="182.75" cy="146.25" r="3.1176" fill="#0f0"/>
    <circle transform="rotate(-18.544 266.91 121.39)" cx="274.69" cy="138.69" r="3.1176" fill="#bf00bf"/>
    <circle transform="rotate(-18.544 259.91 211.89)" cx="259.91" cy="211.89" r="3.1176" fill="#0ff"/>
    <circle transform="rotate(-18.544 274.41 118.39)" cx="286.65" cy="154.1" r="3.1176" fill="#f42c2c"/>
    <circle transform="rotate(-18.544 264.41 112.89)" cx="257.42" cy="139.23" r="3.1176" fill="#0f0"/>
    <g transform="rotate(-33.929 185.69 228.88)" fill="#0ff">
     <circle cx="194.12" cy="228.87" r="3.1176"/>
     <circle cx="192.25" cy="210" r="3.1176"/>
     <circle cx="192.5" cy="247.75" r="3.1176"/>
     <circle cx="177.25" cy="232.75" r="3.1176"/>
    </g>
    <circle cx="360" cy="194.75" r="3.1176" fill="#f42c2c"/>
    <circle cx="379" cy="198" r="3.1176" fill="#fff"/>
    <circle cx="238.12" cy="276.37" r="3.1176" fill="#bf00bf"/>
    <circle cx="249.25" cy="193.75" r="3.1176" fill="#ff0"/>
    <circle cx="244.25" cy="180" r="3.1176"/>
   </g>
  </g>
  <g stroke-dasharray="null">
   <circle transform="rotate(-44.105 252.87 120.57)" cx="252.87" cy="120.57" r="4.1802" fill="#ef3232" stroke-width="99"/>
   <g transform="rotate(-22.682 364 234)" stroke-width="5.798">
    <circle transform="rotate(144.64 370.29 234.21)" cx="396.42" cy="224.08" r="3.1176" fill="#bf00bf"/>
    <circle transform="rotate(144.64 370.29 234.21)" cx="376.79" cy="271.96" r="3.1176" fill="#6700bc"/>
    <circle transform="rotate(144.64 370.29 234.21)" cx="350.79" cy="237.46" r="3.1176" fill="#f42c2c"/>
    <circle transform="rotate(144.64 370.29 234.21)" cx="381.04" cy="196.46" r="3.1176" fill="#ff0"/>
    <circle transform="rotate(144.64 370.29 234.21)" cx="397.79" cy="259.46" r="3.1176" fill="#ff7f00"/>
    <circle transform="rotate(144.64 370.29 234.21)" cx="355.54" cy="270.46" r="3.1176" fill="#0f0"/>
    <circle transform="rotate(144.64 370.29 234.21)" cx="394.54" cy="205.21" r="3.1176"/>
    <circle transform="rotate(144.64 370.29 234.21)" cx="342.79" cy="230.71" r="3.1176" fill="#fff"/>
    <circle transform="rotate(144.64 370.29 234.21)" cx="355.92" cy="251.58" r="3.1176" fill="#bf00bf"/>
    <circle transform="rotate(144.64 370.29 234.21)" cx="375.29" cy="210.46" r="3.1176" fill="#6700bc"/>
    <circle transform="rotate(144.64 370.29 234.21)" cx="394.79" cy="242.96" r="3.1176" fill="#f42c2c"/>
    <circle transform="rotate(144.64 370.29 234.21)" cx="382.54" cy="257.96" r="3.1176" fill="#ff0"/>
    <circle transform="rotate(144.64 370.29 234.21)" cx="360.79" cy="226.46" r="3.1176" fill="#ff7f00"/>
    <circle transform="rotate(144.64 370.29 234.21)" cx="379.54" cy="227.96" r="3.1176" fill="#0f0"/>
    <circle transform="rotate(144.64 370.29 234.21)" cx="373.04" cy="245.21" r="3.1176"/>
    <circle transform="rotate(144.64 370.29 234.21)" cx="365.79" cy="263.21" r="3.1176" fill="#fff"/>
   </g>
  </g>
 </g>
 <g font-family="serif" font-size="24" stroke-width="0" text-anchor="middle">
  <text x="124" y="138" opacity=".5"/>
  <text x="360" y="393" opacity=".5"/>
  <text x="155" y="84" opacity=".5"/>
 </g>
</svg>