<?xml version="1.1" encoding="UTF-8"?>
<svg xmlns="http://www.w3.org/2000/svg" viewBox="0 0 455 455">
  <defs>
    <style>
      .cls-1 {
        fill: #fff;
      }

      .cls-2 {
        fill: aqua;
      }

      .cls-3 {
        fill: #6700bc;
      }

      .cls-4 {
        fill: #932c74;
      }

      .cls-5 {
        fill: #ff007f;
      }

      .cls-5, .cls-6 {
        fill-rule: evenodd;
      }

      .cls-7 {
        fill: #f42c2c;
      }

      .cls-8 {
        fill: #ef3232;
      }

      .cls-6 {
        fill: #ffd4aa;
      }

      .cls-9 {
        fill: #bf00bf;
      }

      .cls-10 {
        fill: lime;
      }

      .cls-11 {
        fill: #7f007f;
      }

      .cls-12 {
        fill: #ff7f00;
      }

      .cls-13 {
        fill: #ff0;
      }
    </style>
  </defs>
  <g id="Layer_1-2" data-name="Layer 1">
    <circle class="cls-4" cx="227.5" cy="227.5" r="227.5"/>
    <g>
      <path class="cls-5" d="M90.26,238.75l60.72,154.74,160.82,1.1,57.44-154.74-278.98-1.1h0Z"/>
      <g>
        <g>
          <rect class="cls-1" x="145.52" y="232.02" width="2.46" height="163.42" transform="translate(-74.09 46.91) rotate(-14.55)"/>
          <rect class="cls-1" x="186.77" y="229.7" width="2.46" height="163.42" transform="translate(-39.95 27.93) rotate(-7.68)"/>
          <rect class="cls-1" x="229.89" y="229.08" width="2.46" height="163.42" transform="translate(-7 5.33) rotate(-1.3)"/>
          <rect class="cls-1" x="191.29" y="310.18" width="163.42" height="2.46" transform="translate(-57.07 561.53) rotate(-85.91)"/>
          <rect class="cls-1" x="230.91" y="313.31" width="163.42" height="2.46" transform="translate(-70.24 538.33) rotate(-75.48)"/>
        </g>
        <g>
          <g>
            <path class="cls-6" d="M144.46,209.49c0,21.7-19.19,39.29-42.86,39.29s-42.86-17.59-42.86-39.29,19.19-39.29,42.86-39.29,42.86,17.59,42.86,39.29Z"/>
            <path class="cls-6" d="M195.89,215.2c0,21.7-19.19,39.29-42.86,39.29s-42.86-17.59-42.86-39.29,19.19-39.29,42.86-39.29,42.86,17.59,42.86,39.29Z"/>
            <path class="cls-6" d="M254.61,216.27c0,21.7-19.19,39.29-42.86,39.29s-42.86-17.59-42.86-39.29,19.19-39.29,42.86-39.29,42.86,17.59,42.86,39.29Z"/>
            <path class="cls-6" d="M303.04,214.99c0,21.7-19.19,39.29-42.86,39.29s-42.86-17.59-42.86-39.29,19.19-39.29,42.86-39.29,42.86,17.59,42.86,39.29Z"/>
            <path class="cls-6" d="M347.32,214.13c0,21.7-19.19,39.29-42.86,39.29s-42.86-17.59-42.86-39.29,19.19-39.29,42.86-39.29,42.86,17.59,42.86,39.29h0Z"/>
            <path class="cls-6" d="M396.25,208.34c0,21.7-19.19,39.28-42.86,39.28s-42.86-17.59-42.86-39.29,19.19-39.29,42.86-39.29,42.86,17.59,42.86,39.29h0Z"/>
            <path class="cls-6" d="M229.26,60.41c-22.57,0,19.41,16.32-42.75,30.37s-103.96,52.05-104.41,98.19H379.26c-.46-46.88-45.69-86.37-107.34-98.78-2.02-16.7-20.35-29.78-42.66-29.78h0Z"/>
          </g>
          <g>
            <circle class="cls-3" cx="102" cy="151.54" r="3.12"/>
            <circle class="cls-13" cx="115.25" cy="139.54" r="3.12"/>
            <circle class="cls-12" cx="270" cy="181.04" r="3.12"/>
            <circle class="cls-10" cx="256.75" cy="85.04" r="3.12"/>
            <circle class="cls-9" cx="213.12" cy="119.16" r="3.12"/>
            <circle class="cls-3" cx="193.5" cy="167.04" r="3.12"/>
            <circle class="cls-7" cx="167.5" cy="132.54" r="3.12"/>
            <circle class="cls-13" cx="197.75" cy="91.54" r="3.12"/>
            <circle class="cls-12" cx="214.5" cy="154.54" r="3.12"/>
            <circle class="cls-10" cx="172.25" cy="165.54" r="3.12"/>
            <circle cx="211.25" cy="100.29" r="3.12"/>
            <circle class="cls-1" cx="159.5" cy="125.79" r="3.12"/>
            <circle class="cls-9" cx="172.62" cy="146.66" r="3.12"/>
            <circle class="cls-3" cx="192" cy="105.54" r="3.12"/>
            <circle class="cls-7" cx="211.5" cy="138.04" r="3.12"/>
            <circle class="cls-13" cx="199.25" cy="153.04" r="3.12"/>
            <circle class="cls-12" cx="177.5" cy="121.54" r="3.12"/>
            <circle class="cls-10" cx="196.25" cy="123.04" r="3.12"/>
            <circle cx="189.75" cy="140.29" r="3.12"/>
            <circle class="cls-1" cx="182.5" cy="158.29" r="3.12"/>
            <circle class="cls-9" cx="339.12" cy="202.16" r="3.12"/>
            <circle class="cls-3" cx="309" cy="237.04" r="3.12"/>
            <circle class="cls-7" cx="283" cy="202.54" r="3.12"/>
            <circle class="cls-13" cx="313.25" cy="161.54" r="3.12"/>
            <circle class="cls-12" cx="330" cy="224.54" r="3.12"/>
            <circle class="cls-10" cx="287.75" cy="235.54" r="3.12"/>
            <circle cx="321.75" cy="235.79" r="3.12"/>
            <circle class="cls-1" cx="275" cy="195.79" r="3.12"/>
            <circle class="cls-9" cx="288.12" cy="216.66" r="3.12"/>
            <circle class="cls-3" cx="307.5" cy="175.54" r="3.12"/>
            <circle class="cls-7" cx="327" cy="208.04" r="3.12"/>
            <circle class="cls-13" cx="314.75" cy="223.04" r="3.12"/>
            <circle class="cls-12" cx="293" cy="191.54" r="3.12"/>
            <circle class="cls-10" cx="311.75" cy="193.04" r="3.12"/>
            <circle cx="305.25" cy="210.29" r="3.12"/>
            <circle class="cls-1" cx="298" cy="228.29" r="3.12"/>
            <circle class="cls-9" cx="114.96" cy="179.29" r="3.12"/>
            <circle class="cls-3" cx="153.26" cy="228.66" r="3.12" transform="translate(-117.24 279.65) rotate(-66.84)"/>
            <circle class="cls-7" cx="109.32" cy="226.5" r="3.12" transform="translate(-141.92 237.94) rotate(-66.84)"/>
            <circle class="cls-13" cx="83.52" cy="182.56" r="3.12"/>
            <circle class="cls-12" cx="148.03" cy="191.94" r="3.12"/>
            <circle class="cls-10" cx="141.53" cy="235.11" r="3.12" transform="translate(-130.29 272.78) rotate(-66.84)"/>
            <circle cx="96.87" cy="173.59" r="3.12"/>
            <circle class="cls-1" cx="99.97" cy="231.2" r="3.12" transform="translate(-151.91 232.2) rotate(-66.84)"/>
            <circle class="cls-9" cx="124.32" cy="227.34" r="3.12" transform="translate(-133.59 252.24) rotate(-66.84)"/>
            <circle class="cls-3" cx="94.13" cy="193.35" r="3.12"/>
            <circle class="cls-7" cx="131.68" cy="188.2" r="3.12"/>
            <circle class="cls-13" cx="140.65" cy="205.37" r="3.12"/>
            <circle class="cls-12" cx="103.14" cy="212.98" r="3.12"/>
            <circle class="cls-10" cx="111.89" cy="196.33" r="3.12"/>
            <circle cx="125.2" cy="209.09" r="3.12"/>
            <circle class="cls-1" cx="138.89" cy="222.83" r="3.12" transform="translate(-120.6 262.9) rotate(-66.84)"/>
            <g>
              <circle class="cls-9" cx="242.54" cy="213.8" r="3.12" transform="translate(-58.96 97.03) rotate(-20.22)"/>
              <circle class="cls-3" cx="190.83" cy="211.94" r="3.12" transform="translate(-61.5 79.04) rotate(-20.22)"/>
              <circle class="cls-7" cx="214.21" cy="175.61" r="3.12"/>
              <circle class="cls-13" cx="263.14" cy="189.83" r="3.12" transform="translate(-31.4 53.74) rotate(-11.01)"/>
              <circle class="cls-12" cx="209.82" cy="227.32" r="3.12"/>
              <circle class="cls-10" cx="184.89" cy="191.48" r="3.12" transform="translate(-54.8 75.72) rotate(-20.22)"/>
              <circle cx="259.6" cy="205.52" r="3.12" transform="translate(-55.04 102.42) rotate(-20.22)"/>
              <circle class="cls-1" cx="217.78" cy="165.77" r="3.12"/>
              <circle class="cls-9" cx="202.73" cy="185.3" r="3.12"/>
              <circle class="cls-3" cx="248.02" cy="189.27" r="3.12"/>
              <circle class="cls-7" cx="224.26" cy="218.8" r="3.12" transform="translate(-61.81 91.02) rotate(-20.22)"/>
              <circle class="cls-13" cx="205.95" cy="212.49" r="3.12"/>
              <circle class="cls-12" cx="227.99" cy="181.2" r="3.12"/>
              <circle class="cls-10" cx="233.06" cy="199.31" r="3.12" transform="translate(-33.77 48.17) rotate(-11.01)"/>
              <circle cx="214.63" cy="199.17" r="3.12"/>
              <circle class="cls-1" cx="195.23" cy="198.59" r="3.12" transform="translate(-56.62 79.74) rotate(-20.22)"/>
            </g>
            <g>
              <circle class="cls-9" cx="280.11" cy="120.27" r="3.12" transform="translate(-8.43 218.6) rotate(-42.06)"/>
              <circle class="cls-3" cx="297.61" cy="168.96" r="3.12" transform="translate(-36.54 242.86) rotate(-42.06)"/>
              <circle class="cls-7" cx="255.2" cy="160.76" r="3.12" transform="translate(-41.97 212.34) rotate(-42.06)"/>
              <circle class="cls-13" cx="250.2" cy="110.06" r="3.12" transform="translate(-9.3 195.93) rotate(-42.06)"/>
              <circle class="cls-12" cx="304.83" cy="145.62" r="3.12" transform="translate(-19.05 241.69) rotate(-42.06)"/>
              <circle class="cls-10" cx="280.83" cy="182.08" r="3.12" transform="translate(-49.65 235) rotate(-42.06)"/>
              <circle cx="266.08" cy="107.51" r="3.12" transform="translate(-3.5 205.92) rotate(-42.06)"/>
              <circle class="cls-1" cx="244.74" cy="161.11" r="3.12" transform="translate(-44.9 205.42) rotate(-42.06)"/>
              <circle class="cls-9" cx="268.46" cy="167.82" r="3.12" transform="translate(-43.28 223.04) rotate(-42.06)"/>
              <circle class="cls-3" cx="255.31" cy="124.31" r="3.12" transform="translate(-17.52 203.02) rotate(-42.06)"/>
              <circle class="cls-7" cx="291.55" cy="135.37" r="3.12" transform="translate(-15.61 230.15) rotate(-42.06)"/>
              <circle class="cls-13" cx="292.51" cy="154.72" r="3.12" transform="translate(-28.32 235.77) rotate(-42.06)"/>
              <circle class="cls-12" cx="255.26" cy="145.9" r="3.12" transform="translate(-32 208.55) rotate(-42.06)"/>
              <circle class="cls-10" cx="270.18" cy="134.45" r="3.12" transform="translate(-20.49 215.6) rotate(-42.06)"/>
              <circle cx="276.91" cy="151.61" r="3.12" transform="translate(-30.25 224.53) rotate(-42.06)"/>
              <circle class="cls-1" cx="283.59" cy="169.84" r="3.12" transform="translate(-40.74 233.69) rotate(-42.06)"/>
            </g>
            <circle class="cls-12" cx="229.5" cy="102.04" r="3.12"/>
            <circle class="cls-1" cx="290" cy="114.79" r="3.12"/>
            <g>
              <circle class="cls-9" cx="155.26" cy="133.86" r="3.12"/>
              <circle class="cls-7" cx="121.98" cy="167.81" r="3.12"/>
              <circle cx="144.42" cy="118.3" r="3.12"/>
              <circle class="cls-1" cx="111.71" cy="165.82" r="3.12"/>
              <circle class="cls-9" cx="133.34" cy="177.63" r="3.12"/>
              <circle class="cls-3" cx="130.18" cy="132.28" r="3.12"/>
              <circle class="cls-7" cx="163.07" cy="151.13" r="3.12"/>
              <circle class="cls-13" cx="159.7" cy="170.2" r="3.12"/>
              <circle class="cls-12" cx="125.34" cy="153.33" r="3.12"/>
              <circle class="cls-10" cx="142.44" cy="145.48" r="3.12"/>
              <circle cx="145.18" cy="163.71" r="3.12"/>
              <circle class="cls-1" cx="147.64" cy="182.96" r="3.12"/>
            </g>
            <circle class="cls-9" cx="323.61" cy="150.1" r="3.12" transform="translate(5.08 310.7) rotate(-51.64)"/>
            <circle cx="237.57" cy="111.84" r="3.12" transform="translate(-13.25 189.54) rotate(-42.42)"/>
            <circle class="cls-3" cx="347.4" cy="142" r="3.12" transform="translate(20.46 326.28) rotate(-51.64)"/>
            <circle class="cls-7" cx="309.82" cy="137.11" r="3.12" transform="translate(10.04 294.96) rotate(-51.64)"/>
            <circle class="cls-13" cx="305.66" cy="118.19" r="3.12" transform="translate(23.29 284.52) rotate(-51.64)"/>
            <circle class="cls-10" cx="331.05" cy="134.46" r="3.12" transform="translate(20.17 310.6) rotate(-51.64)"/>
            <circle cx="321.55" cy="118.66" r="3.12" transform="translate(28.95 297.16) rotate(-51.64)"/>
            <circle class="cls-7" cx="165" cy="219.54" r="3.12"/>
            <circle class="cls-1" cx="157" cy="212.79" r="3.12"/>
            <circle class="cls-9" cx="170.12" cy="233.66" r="3.12"/>
            <circle class="cls-13" cx="196.75" cy="240.04" r="3.12"/>
            <circle cx="187.25" cy="227.29" r="3.12"/>
            <circle class="cls-1" cx="76.5" cy="225.29" r="3.12"/>
            <circle class="cls-11" cx="359.25" cy="239.29" r="3.12"/>
            <g>
              <circle class="cls-2" cx="230.5" cy="127.04" r="3.12"/>
              <circle class="cls-2" cx="222.5" cy="120.29" r="3.12"/>
              <circle class="cls-2" cx="235.62" cy="141.16" r="3.12" transform="translate(58.54 351.13) rotate(-80.78)"/>
              <circle class="cls-2" cx="262.25" cy="147.54" r="3.12"/>
              <circle class="cls-2" cx="252.75" cy="134.79" r="3.12"/>
            </g>
            <g>
              <circle class="cls-7" cx="73.82" cy="200.37" r="3.12"/>
              <circle class="cls-1" cx="65.63" cy="193.84" r="3.12"/>
              <circle class="cls-9" cx="79.33" cy="214.34" r="3.12" transform="translate(-5.88 2.27) rotate(-1.58)"/>
              <circle class="cls-13" cx="106.12" cy="219.99" r="3.12" transform="translate(-6.03 3.01) rotate(-1.58)"/>
              <circle cx="96.27" cy="207.5" r="3.12"/>
            </g>
            <g>
              <circle class="cls-1" cx="269.45" cy="223.88" r="3.12"/>
              <circle class="cls-1" cx="279.39" cy="220.59" r="3.12"/>
              <circle class="cls-1" cx="254.74" cy="220.85" r="3.12"/>
              <circle class="cls-1" cx="235.37" cy="240.21" r="3.12"/>
              <circle class="cls-1" cx="251.21" cy="238.79" r="3.12"/>
            </g>
            <circle class="cls-9" cx="176.62" cy="110.16" r="3.12"/>
            <circle cx="68.75" cy="215.79" r="3.12"/>
            <circle class="cls-7" cx="86" cy="232.04" r="3.12"/>
            <circle class="cls-10" cx="162.25" cy="107.04" r="3.12"/>
            <circle class="cls-9" cx="259.29" cy="96.11" r="3.12" transform="translate(-17.1 87.45) rotate(-18.54)"/>
            <circle class="cls-2" cx="239.41" cy="172.68" r="3.12" transform="translate(-42.49 85.11) rotate(-18.54)"/>
            <circle class="cls-7" cx="276.87" cy="109.14" r="3.12" transform="translate(-20.34 93.72) rotate(-18.54)"/>
            <circle class="cls-10" cx="245.66" cy="100.87" r="3.12" transform="translate(-13.1 41.15) rotate(-9.33)"/>
            <g>
              <circle class="cls-2" cx="172.18" cy="184.96" r="3.12"/>
              <circle class="cls-2" cx="160.1" cy="170.34" r="3.12"/>
              <circle class="cls-2" cx="181.38" cy="201.52" r="3.12"/>
              <circle class="cls-2" cx="160.35" cy="197.59" r="3.12"/>
            </g>
            <circle class="cls-7" cx="339.5" cy="155.54" r="3.12"/>
            <circle class="cls-1" cx="358.5" cy="158.79" r="3.12"/>
            <circle class="cls-9" cx="217.62" cy="237.16" r="3.12"/>
            <circle class="cls-13" cx="228.75" cy="154.54" r="3.12"/>
            <circle cx="223.75" cy="140.79" r="3.12"/>
          </g>
        </g>
        <g>
          <circle class="cls-8" cx="232.37" cy="81.36" r="4.18"/>
          <g>
            <circle class="cls-9" cx="344.15" cy="220.09" r="3.12" transform="translate(-24.74 395.59) rotate(-58.04)"/>
            <circle class="cls-3" cx="313.92" cy="178.09" r="3.12"/>
            <circle class="cls-7" cx="356.95" cy="174.29" r="3.12" transform="translate(20.14 384.89) rotate(-58.04)"/>
            <circle class="cls-13" cx="375.72" cy="221.66" r="3.12" transform="translate(-11.21 423.11) rotate(-58.04)"/>
            <circle class="cls-12" cx="313.41" cy="202.52" r="3.12"/>
            <circle class="cls-10" cx="326.44" cy="160.86" r="3.12"/>
            <circle cx="361.16" cy="228.48" r="3.12" transform="translate(-23.86 413.96) rotate(-58.04)"/>
            <circle class="cls-1" cx="366.91" cy="171.08" r="3.12" transform="translate(27.56 391.83) rotate(-58.04)"/>
            <circle class="cls-9" cx="342.26" cy="171.17" r="3.12" transform="translate(15.87 370.95) rotate(-58.04)"/>
            <circle class="cls-3" cx="366.89" cy="209.37" r="3.12" transform="translate(-4.94 409.83) rotate(-58.04)"/>
            <circle class="cls-7" cx="328.99" cy="208.71" r="3.12" transform="translate(-22.22 377.37) rotate(-58.04)"/>
            <circle class="cls-13" cx="322.75" cy="190.38" r="3.12"/>
            <circle class="cls-12" cx="360.99" cy="188.6" r="3.12" transform="translate(9.9 395.05) rotate(-58.04)"/>
            <circle class="cls-10" cx="349.79" cy="203.71" r="3.12" transform="translate(-8.19 392.67) rotate(-58.04)"/>
            <circle cx="338.6" cy="189.07" r="3.12" transform="translate(-1.03 376.27) rotate(-58.04)"/>
            <circle class="cls-1" cx="327.16" cy="173.39" r="3.12"/>
          </g>
        </g>
      </g>
    </g>
  </g>
</svg>