<?xml version="1.0" encoding="utf-8"?>
<!-- Generator: Adobe Illustrator 27.0.0, SVG Export Plug-In . SVG Version: 6.00 Build 0)  -->
<svg version="1.1" xmlns="http://www.w3.org/2000/svg" xmlns:xlink="http://www.w3.org/1999/xlink" x="0px" y="0px"
	 viewBox="0 0 410.9 247" style="enable-background:new 0 0 410.9 247;" xml:space="preserve">
<style type="text/css">
	.st0{display:none;}
	.st1{display:inline;}
	.st2{fill:#FED3A9;}
	.st3{fill:#FEE0C2;}
	.st4{fill:#FEECDB;}
	.st5{fill:#FEEFE0;}
	.st6{display:inline;fill:#6700BC;}
	.st7{display:inline;fill:#FFFF00;}
	.st8{display:inline;fill:#FF7F00;}
	.st9{display:inline;fill:#00FF00;}
	.st10{display:inline;fill:#BF00BF;}
	.st11{display:inline;fill:#F42C2C;}
	.st12{display:inline;fill:#FFFFFF;}
	.st13{fill:#BF00BF;}
	.st14{fill:#6700BC;}
	.st15{fill:#F42C2C;}
	.st16{fill:#FFFF00;}
	.st17{fill:#FF7F00;}
	.st18{fill:#00FF00;}
	.st19{fill:#FFFFFF;}
	.st20{display:inline;fill:#7F007F;}
	.st21{fill:#00FFFF;}
	.st22{display:inline;fill:#00FFFF;}
	.st23{fill:#FED3A9;stroke:#F9739C;stroke-width:6;stroke-miterlimit:10;}
	.st24{fill:#F9739C;}
</style>
<g id="Layer_1" class="st0">
	<g id="Layer_2_00000124855633588573177590000007106996788023618201_" class="st1">
		<g>
			<g>
				<g>
					<g>
						<path class="st2" d="M175,204.5c-0.6,0-1.1,0-1.7,0c-0.3-0.3-0.7-0.2-1.1-0.2c-1.7,0-3.4,0-5.1,0c-1.6,0.1-3.1-0.3-4.6-0.6
							c-7.7-1.4-14.5-4.6-20.5-9.6c-0.7-0.6-1.1-0.6-1.8,0c-10.8,8.2-23,10.9-36.1,8.7c-7.6-1.3-14.5-4.5-20.5-9.5
							c-0.9-0.7-1.4-0.6-2.3-0.2c-7.3,3.6-15,5.1-23.2,4.6c-5.3-0.4-10.4-1.4-15.2-3.6c-12.2-5.4-20.4-14.3-23.9-27.3
							c-0.4-1.4-0.2-2.9-0.9-4.2c0-2.6,0-5.1,0-7.7c0.6-2.1,0.7-4.3,1.3-6.4c1.8-6.3,5.1-11.6,9.5-16.3c3.7-3.9,8.1-6.9,13-9
							c0.8-0.4,1.2-0.8,1.4-1.7c1.4-5.9,3.4-11.6,6.1-17.1C55.6,92,64.3,81.7,74.9,72.8c9.2-7.7,19.4-14,30.3-19.2
							c11.2-5.3,22.7-9.4,34.7-12.4c8.3-2.1,16.8-3.8,24.8-6.8c4.2-1.6,8.3-3.3,11.9-6.1c2.5-1.9,4.6-4.2,5.2-7.5
							c0.4-2.3-0.2-4.6-0.7-6.9c-0.5-2.1,0.3-3.5,2.4-4c0.7-0.2,1.5-0.2,2.2-0.3c2,0,4,0,6,0c2.1,0.2,4.3,0.3,6.4,0.7
							c10.1,1.9,19,6,26,13.8c3.7,4.1,6,8.9,6.9,14.3c0.1,0.6,0.4,0.9,0.9,1c0.8,0.2,1.7,0.3,2.6,0.5c7.1,1.6,14.2,3.5,21.1,5.9
							c13.8,4.8,26.9,11.1,38.9,19.4c8,5.5,15.3,11.9,21.8,19.2c6.3,7,11.5,14.7,15.3,23.3c2.4,5.3,4.3,10.7,5.2,16.4
							c0.1,0.6,0.4,1.1,1,1.4c3.7,2.5,6.9,5.4,9.6,8.9c4.7,6,7.4,12.8,7.9,20.5c0,1.6,0,3.2,0,4.8c-0.1,1.6-0.3,3.3-0.7,4.9
							c-2.7,12.2-9.9,21-20.8,26.8c-7.8,4.1-16.1,5.8-25,5.1c-5.4-0.5-10.5-1.7-15.4-4c-0.7-0.3-1.1-0.2-1.6,0.2
							c-4.7,3.8-10.1,6.5-15.9,8.1c-5.9,1.6-11.9,2.1-17.9,1.4c-5.2-0.6-10.1-2.1-14.8-4.4c-0.6-0.3-1.1-0.4-1.7-0.1
							c-6.2,3.3-12.8,5.2-19.9,5.6c-3.6,0.2-7.2-0.1-10.7-0.7c-4.9-0.9-9.6-2.5-13.9-5c-0.6-0.4-1.1-0.3-1.7,0.1
							c-4.8,3.1-10,5-15.6,6.2C178.2,204,176.5,204,175,204.5z"/>
						<path class="st3" d="M167,204.5c0-0.1,0-0.2,0-0.2c1.7,0,3.4,0,5.1,0c0.4,0,0.8-0.1,1.1,0.2
							C171.2,204.5,169.1,204.5,167,204.5z"/>
						<path class="st4" d="M191.8,9.2c0,0.1,0,0.1,0,0.2c-2,0-4,0-6,0c0-0.1,0-0.2,0-0.2C187.8,9.2,189.8,9.2,191.8,9.2z"/>
						<path class="st5" d="M355.7,159.7c-0.1,0-0.1,0-0.2,0c0-1.6,0-3.2,0-4.8c0.1,0,0.1,0,0.2,0
							C355.7,156.5,355.7,158.1,355.7,159.7z"/>
					</g>
				</g>
				<g class="st0">
					<circle class="st6" cx="74.1" cy="137.8" r="3.1"/>
					<circle class="st7" cx="87.3" cy="125.8" r="3.1"/>
					<circle class="st8" cx="242.1" cy="158.7" r="3.1"/>
					<circle class="st9" cx="228.8" cy="71.3" r="3.1"/>
					<circle class="st10" cx="185.2" cy="105.5" r="3.1"/>
					<circle class="st6" cx="165.6" cy="153.3" r="3.1"/>
					<circle class="st11" cx="139.6" cy="118.8" r="3.1"/>
					<circle class="st7" cx="169.8" cy="77.8" r="3.1"/>
					<circle class="st8" cx="186.6" cy="140.8" r="3.1"/>
					<circle class="st9" cx="144.3" cy="151.8" r="3.1"/>
					<circle class="st1" cx="183.3" cy="86.6" r="3.1"/>
					<circle class="st12" cx="131.6" cy="112.1" r="3.1"/>
					<circle class="st10" cx="144.7" cy="133" r="3.1"/>
					<circle class="st6" cx="164.1" cy="91.8" r="3.1"/>
					<circle class="st11" cx="183.6" cy="124.3" r="3.1"/>
					<circle class="st7" cx="171.3" cy="139.3" r="3.1"/>
					<circle class="st8" cx="149.6" cy="107.8" r="3.1"/>
					<circle class="st9" cx="168.3" cy="109.3" r="3.1"/>
					<circle class="st1" cx="161.8" cy="126.6" r="3.1"/>
					<circle class="st12" cx="154.6" cy="144.6" r="3.1"/>
					<circle class="st10" cx="311.2" cy="188.5" r="3.1"/>
					<circle class="st6" cx="281.1" cy="223.3" r="3.1"/>
					<circle class="st11" cx="255.1" cy="188.8" r="3.1"/>
					<circle class="st7" cx="285.3" cy="147.8" r="3.1"/>
					<circle class="st8" cx="302.1" cy="210.8" r="3.1"/>
					<circle class="st9" cx="259.8" cy="221.8" r="3.1"/>
					<circle class="st1" cx="293.8" cy="222.1" r="3.1"/>
					<circle class="st12" cx="247.1" cy="182.1" r="3.1"/>
					<circle class="st10" cx="260.2" cy="203" r="3.1"/>
					<circle class="st6" cx="279.6" cy="161.8" r="3.1"/>
					<circle class="st11" cx="299.1" cy="194.3" r="3.1"/>
					<circle class="st7" cx="286.8" cy="209.3" r="3.1"/>
					<circle class="st8" cx="265.1" cy="177.8" r="3.1"/>
					<ellipse class="st9" cx="283.8" cy="179.4" rx="3.1" ry="3.1"/>
					<circle class="st1" cx="277.3" cy="196.6" r="3.1"/>
					<circle class="st12" cx="270.1" cy="214.6" r="3.1"/>
					<circle class="st10" cx="87.1" cy="165.6" r="3.1"/>
					<circle class="st6" cx="125.4" cy="215" r="3.1"/>
					<circle class="st11" cx="81.4" cy="212.8" r="3.1"/>
					<circle class="st7" cx="55.6" cy="168.9" r="3.1"/>
					<circle class="st8" cx="120.1" cy="178.2" r="3.1"/>
					<circle class="st9" cx="113.6" cy="221.4" r="3.1"/>
					<circle class="st1" cx="69" cy="159.9" r="3.1"/>
					<circle class="st12" cx="72.1" cy="217.5" r="3.1"/>
					<circle class="st10" cx="96.4" cy="213.7" r="3.1"/>
					<circle class="st6" cx="66.2" cy="179.7" r="3.1"/>
					<circle class="st11" cx="103.8" cy="174.5" r="3.1"/>
					<circle class="st7" cx="112.7" cy="191.7" r="3.1"/>
					<circle class="st8" cx="75.2" cy="199.3" r="3.1"/>
					<circle class="st9" cx="84" cy="182.6" r="3.1"/>
					<circle class="st1" cx="97.3" cy="195.4" r="3.1"/>
					<circle class="st12" cx="111" cy="209.1" r="3.1"/>
					<g class="st1">
						<circle class="st13" cx="214.6" cy="200.1" r="3.1"/>
						<circle class="st14" cx="162.9" cy="198.3" r="3.1"/>
						<circle class="st15" cx="186.3" cy="161.9" r="3.1"/>
						<circle class="st16" cx="235.2" cy="176.1" r="3.1"/>
						<circle class="st17" cx="181.9" cy="213.6" r="3.1"/>
						<circle class="st18" cx="157" cy="177.8" r="3.1"/>
						<circle cx="231.7" cy="191.9" r="3.1"/>
						<circle class="st19" cx="189.9" cy="152.1" r="3.1"/>
						<circle class="st13" cx="174.8" cy="171.6" r="3.1"/>
						<circle class="st14" cx="220.1" cy="175.6" r="3.1"/>
						<circle class="st15" cx="196.3" cy="205.1" r="3.1"/>
						<circle class="st16" cx="178" cy="198.8" r="3.1"/>
						<circle class="st17" cx="200.1" cy="167.5" r="3.1"/>
						<circle class="st18" cx="205.2" cy="185.6" r="3.1"/>
						<circle cx="186.7" cy="185.5" r="3.1"/>
						<circle class="st19" cx="167.3" cy="184.9" r="3.1"/>
					</g>
					<g class="st1">
						<circle class="st13" cx="252.2" cy="106.6" r="3.1"/>
						<circle class="st14" cx="269.7" cy="155.2" r="3.1"/>
						<circle class="st15" cx="227.3" cy="147" r="3.1"/>
						<circle class="st16" cx="222.3" cy="96.3" r="3.1"/>
						<circle class="st17" cx="276.9" cy="131.9" r="3.1"/>
						<circle class="st18" cx="252.9" cy="168.4" r="3.1"/>
						<circle cx="238.2" cy="93.8" r="3.1"/>
						<circle class="st19" cx="216.8" cy="147.4" r="3.1"/>
						<circle class="st13" cx="240.6" cy="154.1" r="3.1"/>
						<circle class="st14" cx="227.4" cy="110.6" r="3.1"/>
						<circle class="st15" cx="263.6" cy="121.6" r="3.1"/>
						<circle class="st16" cx="264.6" cy="141" r="3.1"/>
						<ellipse class="st17" cx="227.4" cy="132.2" rx="3.1" ry="3.1"/>
						<circle class="st18" cx="242.3" cy="120.7" r="3.1"/>
						<circle cx="249" cy="137.9" r="3.1"/>

							<ellipse transform="matrix(0.1602 -0.9871 0.9871 0.1602 60.657 383.4938)" class="st19" cx="255.7" cy="156.1" rx="3.1" ry="3.1"/>
					</g>
					<circle class="st8" cx="201.6" cy="88.3" r="3.1"/>
					<circle class="st12" cx="262.1" cy="101.1" r="3.1"/>
					<g class="st1">
						<circle class="st13" cx="127.4" cy="120.2" r="3.1"/>
						<circle class="st15" cx="94.1" cy="154.1" r="3.1"/>
						<circle cx="116.5" cy="104.6" r="3.1"/>
						<circle class="st19" cx="83.8" cy="152.1" r="3.1"/>
						<circle class="st13" cx="105.4" cy="163.9" r="3.1"/>
						<circle class="st14" cx="102.3" cy="118.6" r="3.1"/>
						<circle class="st15" cx="135.2" cy="137.4" r="3.1"/>
						<circle class="st16" cx="131.8" cy="156.5" r="3.1"/>
						<circle class="st17" cx="97.4" cy="139.6" r="3.1"/>
						<circle class="st18" cx="114.5" cy="131.8" r="3.1"/>
						<circle cx="117.3" cy="150" r="3.1"/>
						<circle class="st19" cx="119.7" cy="169.3" r="3.1"/>
					</g>
					<circle class="st10" cx="295.7" cy="136.4" r="3.1"/>
					<circle class="st1" cx="209.7" cy="98.2" r="3.1"/>
					<circle class="st6" cx="319.5" cy="128.3" r="3.1"/>
					<circle class="st11" cx="281.9" cy="123.4" r="3.1"/>
					<circle class="st7" cx="277.8" cy="104.5" r="3.1"/>
					<circle class="st9" cx="303.1" cy="120.8" r="3.1"/>
					<circle class="st1" cx="293.6" cy="105" r="3.1"/>
					<circle class="st11" cx="137.1" cy="205.8" r="3.1"/>
					<circle class="st12" cx="129.1" cy="199.1" r="3.1"/>
					<circle class="st10" cx="142.2" cy="220" r="3.1"/>
					<circle class="st7" cx="168.8" cy="226.3" r="3.1"/>
					<circle class="st1" cx="159.3" cy="213.6" r="3.1"/>
					<circle class="st12" cx="48.6" cy="211.6" r="3.1"/>
					<circle class="st20" cx="331.3" cy="225.6" r="3.1"/>
					<g class="st1">
						<circle class="st21" cx="202.6" cy="113.3" r="3.1"/>
						<circle class="st21" cx="194.6" cy="106.6" r="3.1"/>
						<circle class="st21" cx="207.7" cy="127.5" r="3.1"/>
						<circle class="st21" cx="234.3" cy="133.8" r="3.1"/>

							<ellipse transform="matrix(0.1602 -0.9871 0.9871 0.1602 69.2568 323.6016)" class="st21" cx="224.8" cy="121.1" rx="3.1" ry="3.1"/>
					</g>
					<g class="st1">
						<circle class="st15" cx="45.9" cy="186.7" r="3.1"/>
						<circle class="st19" cx="37.7" cy="180.1" r="3.1"/>
						<circle class="st13" cx="51.4" cy="200.6" r="3.1"/>
						<circle class="st16" cx="78.2" cy="206.3" r="3.1"/>
						<circle cx="68.4" cy="193.8" r="3.1"/>
					</g>
					<g class="st1">
						<circle class="st19" cx="241.5" cy="210.2" r="3.1"/>
						<circle class="st19" cx="251.5" cy="206.9" r="3.1"/>
						<circle class="st19" cx="226.8" cy="207.2" r="3.1"/>
						<circle class="st19" cx="207.5" cy="226.5" r="3.1"/>
						<ellipse class="st19" cx="223.3" cy="225.1" rx="3.1" ry="3.1"/>
					</g>
					<circle class="st10" cx="148.7" cy="96.5" r="3.1"/>
					<circle class="st1" cx="40.8" cy="202.1" r="3.1"/>
					<circle class="st11" cx="58.1" cy="218.3" r="3.1"/>
					<circle class="st9" cx="134.3" cy="93.3" r="3.1"/>
					<circle class="st10" cx="231.4" cy="82.4" r="3.1"/>
					<circle class="st22" cx="211.5" cy="159" r="3.1"/>
					<circle class="st11" cx="249" cy="95.5" r="3.1"/>
					<circle class="st9" cx="217.8" cy="87.2" r="3.1"/>
					<g class="st1">
						<circle class="st21" cx="144.3" cy="171.3" r="3.1"/>
						<circle class="st21" cx="132.2" cy="156.6" r="3.1"/>
						<circle class="st21" cx="153.5" cy="187.8" r="3.1"/>
						<circle class="st21" cx="132.4" cy="183.9" r="3.1"/>
					</g>
					<circle class="st11" cx="311.6" cy="141.8" r="3.1"/>
					<circle class="st12" cx="330.6" cy="145.1" r="3.1"/>
					<circle class="st10" cx="189.7" cy="223.5" r="3.1"/>
					<circle class="st7" cx="200.8" cy="140.8" r="3.1"/>
					<circle class="st1" cx="195.8" cy="127.1" r="3.1"/>
				</g>
			</g>
		</g>
	</g>
</g>
<g id="Layer_2">
	<g id="Layer_3">
		<path class="st23" d="M193.6,227.5c-0.6,0-1,0-1.6,0c-0.3-0.3-0.7-0.2-1-0.2c-1.6,0-3.2,0-4.8,0c-1.5,0.1-2.9-0.3-4.4-0.6
			c-7.3-1.5-13.8-5-19.5-10.4c-0.7-0.6-1-0.6-1.7,0c-10.3,8.9-21.9,11.8-34.3,9.4c-7.2-1.4-13.8-4.9-19.5-10.3
			c-0.9-0.8-1.3-0.6-2.2-0.2c-6.9,3.9-14.3,5.5-22.1,5c-5-0.4-10.2-0.7-14.8-3.1c-11.6-5.8-19-16.3-22.4-30.3
			c-0.4-1.5-0.2-3.1-0.9-4.5c0-2.8,0-5.5,0-8.3c0.6-2.3,0.7-4.7,1.2-6.9c1.7-6.8,4.8-12.6,9-17.7c3.5-4.2,7.7-7.5,12.4-9.7
			c0.8-0.4,1.1-0.9,1.3-1.8c1.3-6.4,3.2-12.6,5.8-18.5c5.9-13.4,14.2-24.6,24.2-34.2c8.7-8.3,18.4-15.2,28.8-20.8
			c10.6-5.7,21.6-10.2,33-13.4c7.9-2.3,16-4.1,23.6-7.4c4-1.7,7.9-3.6,11.3-6.6c2.4-2.1,4.4-4.5,4.9-8.1c0.4-2.5-0.2-5-0.7-7.5
			c-0.5-2.3,0.3-3.8,2.3-4.3c0.7-0.2,1.4-0.2,2.1-0.3c1.9,0,3.8,0,5.7,0c2,0.2,4.1,0.3,6.1,0.8c9.6,2.1,18.1,6.5,24.7,14.9
			c3.5,4.4,5.7,9.6,6.6,15.5c0.1,0.6,0.4,1,0.9,1.1c0.8,0.2,1.6,0.3,2.5,0.5c6.8,1.7,13.5,3.8,20.1,6.4c13.1,5.2,25.6,12,37,21
			c7.6,6,14.5,12.9,20.7,20.8c6,7.6,10.9,15.9,14.5,25.2c2.3,5.7,3.1,8,4,14.2c0.1,0.6,1.3,4.8,1.9,5.1c3.5,2.7,6.6,5.8,9.1,9.6
			c4.5,6.5,7,13.9,7.5,22.2c0,1.7,0,3.5,0,5.2c-0.1,1.7-0.3,3.6-0.7,5.3c-2.6,13.2-9.4,22.7-19.8,29c-7.4,4.4-15.3,6.3-23.8,5.5
			c-5.1-0.5-10-1.8-14.6-4.3c-0.7-0.3-1-0.2-1.5,0.2c-4.5,4.1-9.6,7-15.1,8.8c-5.6,1.7-11.3,2.3-17,1.5c-4.9-0.6-9.6-2.3-14.1-4.8
			c-0.6-0.3-1-0.4-1.6-0.1c-5.9,3.6-12.2,5.6-18.9,6.1c-3.4,0.2-6.8-0.1-10.2-0.8c-4.7-1-9.1-2.7-13.2-5.4c-0.6-0.4-1-0.3-1.6,0.1
			c-4.6,3.4-9.5,5.4-14.8,6.7C196.6,227,195,226.9,193.6,227.5z"/>
		<g>
			<path class="st24" d="M350.6,140.5c-4.8-3.8-6.7-2.5-4.9,1.6c0.3,0.6,0.7,1.1,1.2,1.5c9.6,8.2,15.4,19.2,16.2,32.7
				c0,0.8,0,1.6-0.1,2.4c-2,14.2-11.4,25.5-23.2,29.9c-6,2.2-12.3,2.8-18.5,1.1c-3.5-1-6.8-2.9-10.3-3c-4.2-0.1-6.8,2.3-10,5.1
				c-6,5-13.1,7.6-20.5,7.5c-3.6,0-7-0.8-10.3-2.1c-3.8-1.5-6.8-3.9-11-3.5c-3.7,0.4-7.1,2.5-10.7,3.5c-4.3,1.2-8.7,1.7-13.1,1.8
				c-8.2,0.1-15.9-3.2-24-3.6c-8.4-0.2-16.3,4.7-24.7,4.1c-8.3-0.5-13.3-6.7-20.4-10.4c-6.9-3.7-12.6-1-18.6,3.6
				c-6.5,5-14.1,7.3-21.9,5.2c-7.2-1.8-12.9-8.1-20.3-9.5c-7.9-1.4-13.1,4.4-20.3,6.8c-7,2.3-14.9,1.1-21.1-3
				c-7.4-4.8-11.3-12.7-13.6-21.8c-4.3-16.3-1.2-34.4,13.2-45.9c1.9-1.6,3.5-3.8,5.8-4.7c3.8-1.5,0.2-4.2-5.4-3.2
				c-36.2,6.4-31.8,66.4-6,84.5c6.4,4.4,14,6.7,21.4,6.4c3.5-0.2,7-0.9,10.3-2.3c3.8-1.5,7.2-4.9,11.1-5.7c4.6-1,8.8,2.5,12.6,4.8
				c4.1,2.4,8.1,4.2,12.6,5c7.3,1.2,16.3,0.3,23.1-3.3c0.7-0.4,1.5-0.8,2.3-1.1c0.9-0.4,1.9-0.8,3.1-1.4c4.3-2.4,9.7-2.2,13.8,0.5
				c0.9,0.6,1.9,1.2,2.7,1.8c7.7,4.9,16.4,5.8,25,3.9c4.4-1,12.5-4.5,17.1-4.8c5.1-0.2,6.4,3.5,11.4,4.3c9.1,1.5,18.4,1,27.3-1.6
				c2.2-0.6,4.2-1.6,6.5-2.3c2.7-0.9,4.1,0.2,6.6,1.4c3.9,1.8,7.8,2.9,11.9,3.4c8,1,16.2-0.9,23.4-4.9c0.8-0.5,1.8-1.1,2.7-1.9
				c3.8-3,8.9-4.1,13.7-2.9c2.3,0.6,4.4,0.5,6.7,0.9c7,1.1,14.4,0.1,21-2.8c15.3-6.6,26.7-21.4,28.5-40.4
				C374.6,159.5,363.9,151.4,350.6,140.5z"/>
		</g>
	</g>
</g>
</svg>
