<?xml version="1.0" encoding="UTF-8"?>
<svg id="Layer_2" data-name="Layer 2" xmlns="http://www.w3.org/2000/svg" viewBox="0 0 337.51 334.18">
  <defs>
    <style>
      .cls-1 {
        fill: #fff;
      }

      .cls-2 {
        fill: aqua;
      }

      .cls-3 {
        fill: #6700bc;
      }

      .cls-4 {
        fill: #f42c2c;
      }

      .cls-5 {
        fill: #ef3232;
      }

      .cls-6 {
        fill: #ffd4aa;
      }

      .cls-6, .cls-7 {
        fill-rule: evenodd;
      }

      .cls-8 {
        fill: #bf00bf;
      }

      .cls-9 {
        fill: lime;
      }

      .cls-10 {
        fill: #7f007f;
      }

      .cls-11 {
        fill: #ff7f00;
      }

      .cls-7 {
        fill: #e07677;
      }

      .cls-12 {
        fill: #ff0;
      }
    </style>
  </defs>
  <g id="Layer_1-2" data-name="Layer 1">
    <g id="Layer_1-2" data-name="Layer 1-2">
      <g>
        <path class="cls-7" d="M31.52,178.34l60.72,154.74,160.82,1.1,57.44-154.74-278.98-1.1h0Z"/>
        <g>
          <g>
            <g>
              <path class="cls-6" d="M85.72,149.08c0,21.7-19.19,39.29-42.86,39.29S0,170.78,0,149.08s19.19-39.29,42.86-39.29,42.86,17.59,42.86,39.29h0Z"/>
              <path class="cls-6" d="M137.15,154.79c0,21.7-19.19,39.29-42.86,39.29s-42.86-17.59-42.86-39.29,19.19-39.29,42.86-39.29,42.86,17.59,42.86,39.29h0Z"/>
              <path class="cls-6" d="M195.87,155.86c0,21.7-19.19,39.29-42.86,39.29s-42.86-17.59-42.86-39.29,19.19-39.29,42.86-39.29,42.86,17.59,42.86,39.29h0Z"/>
              <path class="cls-6" d="M244.3,154.58c0,21.7-19.19,39.29-42.86,39.29s-42.86-17.59-42.86-39.29,19.19-39.29,42.86-39.29,42.86,17.59,42.86,39.29h0Z"/>
              <path class="cls-6" d="M288.58,153.72c0,21.7-19.19,39.29-42.86,39.29s-42.86-17.59-42.86-39.29,19.19-39.29,42.86-39.29,42.86,17.59,42.86,39.29h0Z"/>
              <path class="cls-6" d="M337.51,147.93c0,21.7-19.19,39.28-42.86,39.28s-42.86-17.59-42.86-39.29,19.19-39.29,42.86-39.29,42.86,17.59,42.86,39.29h0Z"/>
              <path class="cls-6" d="M170.52,0c-22.57,0,19.41,16.32-42.75,30.37S23.81,82.42,23.36,128.56H320.52c-.46-46.88-45.69-86.37-107.34-98.78C211.16,13.08,192.83,0,170.52,0h0Z"/>
            </g>
            <g>
              <circle class="cls-3" cx="43.26" cy="91.13" r="3.12"/>
              <circle class="cls-12" cx="56.51" cy="79.13" r="3.12"/>
              <circle class="cls-11" cx="211.26" cy="120.63" r="3.12"/>
              <circle class="cls-9" cx="198.01" cy="24.63" r="3.12"/>
              <circle class="cls-8" cx="154.38" cy="58.75" r="3.12"/>
              <circle class="cls-3" cx="134.76" cy="106.63" r="3.12"/>
              <circle class="cls-4" cx="108.76" cy="72.13" r="3.12"/>
              <circle class="cls-12" cx="139.01" cy="31.13" r="3.12"/>
              <circle class="cls-11" cx="155.76" cy="94.13" r="3.12"/>
              <circle class="cls-9" cx="113.51" cy="105.13" r="3.12"/>
              <circle cx="152.51" cy="39.88" r="3.12"/>
              <circle class="cls-1" cx="100.76" cy="65.38" r="3.12"/>
              <circle class="cls-8" cx="113.88" cy="86.25" r="3.12"/>
              <circle class="cls-3" cx="133.26" cy="45.13" r="3.12"/>
              <circle class="cls-4" cx="152.76" cy="77.63" r="3.12"/>
              <circle class="cls-12" cx="140.51" cy="92.63" r="3.12"/>
              <circle class="cls-11" cx="118.76" cy="61.13" r="3.12"/>
              <circle class="cls-9" cx="137.51" cy="62.63" r="3.12"/>
              <circle cx="131.01" cy="79.88" r="3.12"/>
              <circle class="cls-1" cx="123.76" cy="97.88" r="3.12"/>
              <circle class="cls-8" cx="280.38" cy="141.75" r="3.12"/>
              <circle class="cls-3" cx="250.26" cy="176.63" r="3.12"/>
              <circle class="cls-4" cx="224.26" cy="142.13" r="3.12"/>
              <circle class="cls-12" cx="254.51" cy="101.13" r="3.12"/>
              <circle class="cls-11" cx="271.26" cy="164.13" r="3.12"/>
              <circle class="cls-9" cx="229.01" cy="175.13" r="3.12"/>
              <circle cx="263.01" cy="175.38" r="3.12"/>
              <circle class="cls-1" cx="216.26" cy="135.38" r="3.12"/>
              <circle class="cls-8" cx="229.38" cy="156.25" r="3.12"/>
              <circle class="cls-3" cx="248.76" cy="115.13" r="3.12"/>
              <circle class="cls-4" cx="268.26" cy="147.63" r="3.12"/>
              <circle class="cls-12" cx="256.01" cy="162.63" r="3.12"/>
              <circle class="cls-11" cx="234.26" cy="131.13" r="3.12"/>
              <circle class="cls-9" cx="253.01" cy="132.63" r="3.12"/>
              <circle cx="246.51" cy="149.88" r="3.12"/>
              <circle class="cls-1" cx="239.26" cy="167.88" r="3.12"/>
              <circle class="cls-8" cx="56.22" cy="118.88" r="3.12"/>
              <circle class="cls-3" cx="94.53" cy="168.26" r="3.12"/>
              <circle class="cls-4" cx="50.58" cy="166.1" r="3.12"/>
              <circle class="cls-12" cx="24.78" cy="122.15" r="3.12"/>
              <circle class="cls-11" cx="89.29" cy="131.53" r="3.12"/>
              <circle class="cls-9" cx="82.8" cy="174.71" r="3.12"/>
              <circle cx="38.13" cy="113.18" r="3.12"/>
              <circle class="cls-1" cx="41.24" cy="170.81" r="3.12" transform="translate(-132.02 141.54) rotate(-66.84)"/>
              <circle class="cls-8" cx="65.58" cy="166.94" r="3.12" transform="translate(-113.7 161.58) rotate(-66.84)"/>
              <circle class="cls-3" cx="35.39" cy="132.94" r="3.12"/>
              <circle class="cls-4" cx="72.94" cy="127.79" r="3.12"/>
              <circle class="cls-12" cx="81.91" cy="144.96" r="3.12"/>
              <circle class="cls-11" cx="44.4" cy="152.57" r="3.12"/>
              <circle class="cls-9" cx="53.15" cy="135.92" r="3.12"/>
              <circle cx="66.46" cy="148.68" r="3.12"/>
              <circle class="cls-1" cx="80.16" cy="162.43" r="3.12"/>
              <g>
                <circle class="cls-8" cx="183.79" cy="153.42" r="3.12"/>
                <circle class="cls-3" cx="132.08" cy="151.55" r="3.12"/>
                <circle class="cls-4" cx="155.47" cy="115.2" r="3.12"/>
                <circle class="cls-12" cx="204.41" cy="129.41" r="3.12"/>
                <circle class="cls-11" cx="151.08" cy="166.91" r="3.12"/>
                <circle class="cls-9" cx="126.14" cy="131.09" r="3.12"/>
                <circle cx="200.85" cy="145.14" r="3.12"/>
                <circle class="cls-1" cx="159.04" cy="105.36" r="3.12"/>
                <circle class="cls-8" cx="143.99" cy="124.89" r="3.12"/>
                <circle class="cls-3" cx="189.28" cy="128.86" r="3.12"/>
                <circle class="cls-4" cx="165.51" cy="158.42" r="3.12"/>
                <circle class="cls-12" cx="147.21" cy="152.08" r="3.12"/>
                <circle class="cls-11" cx="169.25" cy="120.79" r="3.12"/>
                <circle class="cls-9" cx="174.32" cy="138.89" r="3.12"/>
                <circle cx="155.89" cy="138.76" r="3.12"/>
                <circle class="cls-1" cx="136.48" cy="138.2" r="3.12"/>
              </g>
              <g>
                <circle class="cls-8" cx="221.37" cy="59.84" r="3.12"/>
                <circle class="cls-3" cx="238.87" cy="108.52" r="3.12"/>
                <circle class="cls-4" cx="196.46" cy="100.32" r="3.12" transform="translate(-23.01 122.58) rotate(-32.84)"/>
                <circle class="cls-12" cx="191.45" cy="49.62" r="3.12" transform="translate(16.07 141.03) rotate(-42.06)"/>
                <circle class="cls-11" cx="246.08" cy="85.19" r="3.12"/>
                <circle class="cls-9" cx="222.09" cy="121.64" r="3.12"/>
                <circle cx="207.33" cy="47.08" r="3.12" transform="translate(21.86 151.02) rotate(-42.06)"/>
                <circle class="cls-1" cx="185.99" cy="100.67" r="3.12"/>
                <circle class="cls-8" cx="209.72" cy="107.38" r="3.12"/>
                <circle class="cls-3" cx="196.57" cy="63.87" r="3.12" transform="translate(7.84 148.13) rotate(-42.06)"/>
                <circle class="cls-4" cx="232.79" cy="74.93" r="3.12"/>
                <circle class="cls-12" cx="233.76" cy="94.28" r="3.12"/>
                <circle class="cls-11" cx="196.52" cy="85.46" r="3.12" transform="translate(-14.94 120.24) rotate(-32.84)"/>
                <circle class="cls-9" cx="211.43" cy="74.02" r="3.12"/>
                <circle cx="218.16" cy="91.18" r="3.12"/>
                <circle class="cls-1" cx="224.85" cy="109.4" r="3.12"/>
              </g>
              <circle class="cls-11" cx="170.76" cy="41.63" r="3.12"/>
              <circle class="cls-1" cx="231.26" cy="54.38" r="3.12"/>
              <g>
                <circle class="cls-8" cx="96.52" cy="73.45" r="3.12"/>
                <circle class="cls-4" cx="63.24" cy="107.4" r="3.12"/>
                <circle cx="85.68" cy="57.89" r="3.12"/>
                <circle class="cls-1" cx="52.97" cy="105.41" r="3.12"/>
                <circle class="cls-8" cx="74.6" cy="117.22" r="3.12"/>
                <circle class="cls-3" cx="71.44" cy="71.87" r="3.12"/>
                <circle class="cls-4" cx="104.33" cy="90.72" r="3.12"/>
                <circle class="cls-12" cx="100.96" cy="109.79" r="3.12"/>
                <circle class="cls-11" cx="66.6" cy="92.92" r="3.12"/>
                <circle class="cls-9" cx="83.7" cy="85.07" r="3.12"/>
                <circle cx="86.44" cy="103.3" r="3.12"/>
                <circle class="cls-1" cx="88.9" cy="122.55" r="3.12"/>
              </g>
              <circle class="cls-8" cx="264.87" cy="89.69" r="3.12"/>
              <circle cx="178.83" cy="51.44" r="3.12" transform="translate(12.12 134.1) rotate(-42.42)"/>
              <circle class="cls-3" cx="288.66" cy="81.59" r="3.12"/>
              <circle class="cls-4" cx="251.09" cy="76.7" r="3.12"/>
              <circle class="cls-12" cx="246.92" cy="57.78" r="3.12" transform="translate(48.37 215.54) rotate(-51.64)"/>
              <circle class="cls-9" cx="272.31" cy="74.05" r="3.12"/>
              <circle cx="262.81" cy="58.25" r="3.12"/>
              <circle class="cls-4" cx="106.26" cy="159.13" r="3.12"/>
              <circle class="cls-1" cx="98.26" cy="152.38" r="3.12"/>
              <circle class="cls-8" cx="111.38" cy="173.25" r="3.12"/>
              <circle class="cls-12" cx="138.01" cy="179.63" r="3.12"/>
              <circle cx="128.51" cy="166.88" r="3.12"/>
              <circle class="cls-1" cx="17.76" cy="164.88" r="3.12"/>
              <circle class="cls-10" cx="300.51" cy="178.88" r="3.12"/>
              <g>
                <circle class="cls-2" cx="171.76" cy="66.63" r="3.12"/>
                <circle class="cls-2" cx="163.76" cy="59.88" r="3.12"/>
                <circle class="cls-2" cx="176.89" cy="80.76" r="3.12"/>
                <circle class="cls-2" cx="203.51" cy="87.13" r="3.12"/>
                <circle class="cls-2" cx="194.01" cy="74.38" r="3.12"/>
              </g>
              <g>
                <circle class="cls-4" cx="15.08" cy="139.96" r="3.12"/>
                <circle class="cls-1" cx="6.89" cy="133.43" r="3.12"/>
                <circle class="cls-8" cx="20.59" cy="153.93" r="3.12"/>
                <circle class="cls-12" cx="47.38" cy="159.58" r="3.12"/>
                <circle cx="37.53" cy="147.09" r="3.12"/>
              </g>
              <g>
                <circle class="cls-1" cx="210.71" cy="163.47" r="3.12"/>
                <circle class="cls-1" cx="220.65" cy="160.18" r="3.12"/>
                <circle class="cls-1" cx="196" cy="160.44" r="3.12" transform="translate(6.24 328.21) rotate(-80.78)"/>
                <circle class="cls-1" cx="176.63" cy="179.8" r="3.12"/>
                <circle class="cls-1" cx="192.47" cy="178.38" r="3.12"/>
              </g>
              <circle class="cls-8" cx="117.88" cy="49.75" r="3.12"/>
              <circle cx="10.01" cy="155.38" r="3.12"/>
              <circle class="cls-4" cx="27.26" cy="171.63" r="3.12"/>
              <circle class="cls-9" cx="103.51" cy="46.63" r="3.12"/>
              <circle class="cls-8" cx="200.55" cy="35.72" r="3.12"/>
              <circle class="cls-2" cx="180.66" cy="112.29" r="3.12"/>
              <circle class="cls-4" cx="218.12" cy="48.75" r="3.12" transform="translate(-4.18 71.89) rotate(-18.54)"/>
              <circle class="cls-9" cx="186.92" cy="40.45" r="3.12" transform="translate(-4.08 30.84) rotate(-9.33)"/>
              <g>
                <circle class="cls-2" cx="113.44" cy="124.55" r="3.12"/>
                <circle class="cls-2" cx="101.36" cy="109.93" r="3.12"/>
                <circle class="cls-2" cx="122.64" cy="141.11" r="3.12"/>
                <circle class="cls-2" cx="101.61" cy="137.18" r="3.12"/>
              </g>
              <circle class="cls-4" cx="280.76" cy="95.13" r="3.12"/>
              <circle class="cls-1" cx="299.76" cy="98.38" r="3.12"/>
              <circle class="cls-8" cx="158.88" cy="176.75" r="3.12"/>
              <circle class="cls-12" cx="170.01" cy="94.13" r="3.12"/>
              <circle cx="165.01" cy="80.38" r="3.12"/>
            </g>
          </g>
          <g>
            <circle class="cls-5" cx="173.63" cy="20.95" r="4.18"/>
            <g>
              <circle class="cls-8" cx="285.42" cy="159.7" r="3.12"/>
              <circle class="cls-3" cx="255.18" cy="117.68" r="3.12"/>
              <circle class="cls-4" cx="298.21" cy="113.89" r="3.12"/>
              <circle class="cls-12" cx="316.99" cy="161.26" r="3.12"/>
              <circle class="cls-11" cx="254.67" cy="142.11" r="3.12"/>
              <circle class="cls-9" cx="267.7" cy="100.45" r="3.12"/>
              <circle cx="302.42" cy="168.08" r="3.12"/>
              <circle class="cls-1" cx="308.18" cy="110.68" r="3.12"/>
              <circle class="cls-8" cx="283.52" cy="110.77" r="3.12"/>
              <circle class="cls-3" cx="308.16" cy="148.97" r="3.12"/>
              <circle class="cls-4" cx="270.26" cy="148.31" r="3.12"/>
              <circle class="cls-12" cx="264.01" cy="129.97" r="3.12"/>
              <circle class="cls-11" cx="302.25" cy="128.2" r="3.12"/>
              <circle class="cls-9" cx="291.05" cy="143.32" r="3.12"/>
              <circle cx="279.87" cy="128.67" r="3.12"/>
              <circle class="cls-1" cx="268.42" cy="112.98" r="3.12"/>
            </g>
          </g>
        </g>
      </g>
    </g>
  </g>
</svg>