<?xml version="1.0" encoding="utf-8"?>
<!-- Generator: Adobe Illustrator 27.0.0, SVG Export Plug-In . SVG Version: 6.00 Build 0)  -->
<svg version="1.1" id="Layer_1" xmlns="http://www.w3.org/2000/svg" xmlns:xlink="http://www.w3.org/1999/xlink" x="0px" y="0px"
	 viewBox="0 0 609 619" style="enable-background:new 0 0 609 619;" xml:space="preserve">
<style type="text/css">
	.st0{opacity:0.53;fill:#74CBF8;}
	.st1{fill:#FAC695;}
	.st2{fill:#966868;}
	.st3{fill:#7CC097;}
	.st4{fill:#ACC4E7;}
	.st5{fill:#27C9C3;}
	.st6{fill:#F6B4B6;}
	.st7{opacity:0.5;fill:#8A575D;enable-background:new    ;}
	.st8{opacity:0.5;}
	.st9{fill:#855B5B;}
	.st10{fill:#805151;}
	.st11{fill:#A07878;}
	.st12{opacity:0.6;fill:#C0DFCA;enable-background:new    ;}
	.st13{fill:#C0DFCA;}
	.st14{opacity:0.4;}
	.st15{fill:#8A5A5A;}
	.st16{fill:#F297A0;}
	.st17{fill:#00676A;}
	.st18{fill:none;}
	.st19{opacity:0.6;fill:#82ACDC;enable-background:new    ;}
	.st20{fill:#A1BCE3;}
	.st21{fill:#82ACDC;}
	.st22{opacity:0.5;fill:#CBE1F6;enable-background:new    ;}
	.st23{opacity:0.6;fill:#A87B7B;enable-background:new    ;}
	.st24{opacity:0.6;}
	.st25{fill:#EEF7FE;}
</style>
<circle class="st0" cx="304.5" cy="309.5" r="282.4"/>
<g>
	<path class="st1" d="M122,190.5v270h360.5v-270H122z M419.5,296.5c-14.9,0-27-12.1-27-27s12.1-27,27-27s27,12.1,27,27
		S434.4,296.5,419.5,296.5z"/>
	<rect x="113.5" y="460.5" class="st2" width="378" height="18"/>
	<rect x="383.5" y="307.5" class="st3" width="72" height="144"/>
	<polygon class="st4" points="527.5,190.5 86.5,190.5 116.9,155 140.5,127.5 473.5,127.5 497.1,155 	"/>
	<polygon class="st5" points="160,190.5 185.5,127.5 239.5,127.5 233.5,190.5 	"/>
	<polygon class="st6" points="185.5,127.5 140.5,127.5 86.5,190.5 160,190.5 	"/>
	<polygon class="st6" points="454,190.5 428.5,127.5 374.5,127.5 380.5,190.5 	"/>
	<polygon class="st5" points="428.5,127.5 473.5,127.5 527.5,190.5 454,190.5 	"/>
	<g>
		<polygon class="st5" points="307,190.5 307,127.5 374.5,127.5 380.5,190.5 		"/>
	</g>
	<g>
		<polygon class="st6" points="307,190.5 307,127.5 239.5,127.5 233.5,190.5 		"/>
	</g>
	<rect x="374.5" y="424.5" class="st7" width="9" height="18"/>
	<g class="st8">
		<rect x="140.5" y="442.5" class="st9" width="27" height="18"/>
		<g>
			<rect x="212.5" y="424.5" class="st9" width="27" height="18"/>
			<g>
				<rect x="464.5" y="424.5" class="st9" width="18" height="18"/>
				<g>
					<rect x="122.5" y="424.5" class="st9" width="9" height="18"/>
					<g>
						<rect x="352.3" y="406.5" class="st9" width="4.2" height="18"/>
						<rect x="293.5" y="424.5" class="st9" width="27" height="18"/>
						<rect x="248.5" y="442.5" class="st9" width="27" height="18"/>
						<rect x="329.5" y="442.5" class="st9" width="27" height="18"/>
					</g>
				</g>
			</g>
		</g>
	</g>
	<g class="st8">
		<rect x="455.5" y="406.5" class="st2" width="18" height="18"/>
		<rect x="455.5" y="442.5" class="st2" width="27" height="18"/>
		<rect x="347.5" y="424.5" class="st2" width="27" height="18"/>
		<rect x="266.5" y="424.5" class="st2" width="27" height="18"/>
		<rect x="185.5" y="424.5" class="st2" width="27" height="18"/>
		<rect x="131.5" y="424.5" class="st2" width="27" height="18"/>
		<rect x="221.5" y="442.5" class="st2" width="27" height="18"/>
		<rect x="167.5" y="442.5" class="st2" width="27" height="18"/>
		<rect x="302.5" y="442.5" class="st2" width="27" height="18"/>
	</g>
	<g class="st8">
		<rect x="356.5" y="406.5" class="st10" width="27" height="18"/>
		<rect x="455.5" y="424.5" class="st10" width="9" height="18"/>
		<rect x="473.5" y="406.5" class="st10" width="9" height="18"/>
		<rect x="122.5" y="406.5" class="st10" width="27" height="18"/>
		<rect x="320.5" y="424.5" class="st10" width="27" height="18"/>
		<rect x="239.5" y="424.5" class="st10" width="27" height="18"/>
		<rect x="158.5" y="424.5" class="st10" width="27" height="18"/>
		<rect x="194.5" y="442.5" class="st10" width="27" height="18"/>
		<rect x="122.5" y="442.5" class="st10" width="18" height="18"/>
		<rect x="356.5" y="442.5" class="st10" width="27" height="18"/>
		<rect x="275.5" y="442.5" class="st10" width="27" height="18"/>
	</g>
	<rect x="374.5" y="451.5" class="st11" width="90" height="9"/>
	<rect x="392.5" y="316.5" class="st12" width="54" height="54"/>
	<rect x="392.5" y="388.5" class="st12" width="54" height="54"/>
	<rect x="432.5" y="377.5" class="st13" width="17.3" height="6"/>
	<g class="st14">
		<rect x="122.5" y="440.8" class="st15" width="261" height="3.5"/>
		<rect x="455.5" y="442.5" class="st15" width="27" height="3.5"/>
		<rect x="455.5" y="421" class="st15" width="27" height="3.5"/>
		<rect x="129.7" y="426.2" class="st15" width="3.7" height="14.5"/>
		<rect x="156.7" y="426.2" class="st15" width="3.7" height="14.5"/>
		<rect x="183.7" y="426.2" class="st15" width="3.7" height="14.5"/>
		<rect x="210.7" y="426.2" class="st15" width="3.7" height="14.5"/>
		<rect x="237.7" y="426.2" class="st15" width="3.7" height="14.5"/>
		<rect x="264.7" y="426.2" class="st15" width="3.7" height="14.5"/>
		<rect x="291.7" y="426.2" class="st15" width="3.7" height="14.5"/>
		<rect x="318.7" y="426.2" class="st15" width="3.7" height="14.5"/>
		<rect x="345.7" y="426.2" class="st15" width="3.7" height="14.5"/>
		<rect x="372.7" y="426.2" class="st15" width="3.7" height="14.5"/>
		<rect x="354.7" y="406.5" class="st15" width="3.7" height="16.2"/>
		<rect x="327.7" y="444.2" class="st15" width="3.7" height="16.2"/>
		<rect x="300.7" y="444.2" class="st15" width="3.7" height="16.2"/>
		<rect x="273.7" y="444.2" class="st15" width="3.7" height="16.2"/>
		<rect x="246.7" y="444.2" class="st15" width="3.7" height="16.2"/>
		<rect x="219.7" y="444.2" class="st15" width="3.7" height="16.2"/>
		<rect x="192.7" y="444.2" class="st15" width="3.7" height="16.2"/>
		<rect x="165.7" y="444.2" class="st15" width="3.7" height="16.2"/>
		<rect x="138.7" y="444.2" class="st15" width="3.7" height="16.2"/>
		<rect x="354.7" y="444.2" class="st15" width="3.7" height="16.2"/>
		<rect x="463.2" y="424.5" class="st15" width="2.9" height="18"/>
		<rect x="472.1" y="406.5" class="st15" width="2.9" height="15.3"/>
		<rect x="122.5" y="422.8" class="st15" width="261" height="3.5"/>
	</g>
	<g>
		<path class="st16" d="M160,190.5c0,19.9-16.4,36-36.7,36c-0.2,0-0.5,0-0.8,0c-19.9-0.4-36-16.4-36-36H160z"/>
		<path class="st17" d="M527.5,190.5c0,19.9-16.5,36-36.8,36c-2.8,0-5.6-0.3-8.2-0.9c-16.3-3.7-28.5-18-28.5-35.1H527.5z"/>
		<path class="st16" d="M454,190.5c0,19.9-16.5,36-36.8,36s-36.8-16.1-36.8-36H454z"/>
		<path class="st17" d="M233.5,190.5c0,19.9-16.4,36-36.8,36s-36.8-16.1-36.8-36H233.5z"/>
		<path class="st17" d="M380.5,190.5c0,19.9-16.5,36-36.8,36s-36.8-16.1-36.8-36H380.5z"/>
		<path class="st16" d="M307,190.5c0,19.9-16.5,36-36.8,36s-36.8-16.1-36.8-36H307z"/>
	</g>
	<line class="st18" x1="189.6" y1="406.5" x2="208" y2="397"/>
	<line class="st18" x1="208.1" y1="403.7" x2="189.2" y2="413.5"/>
	<g>
		<path class="st19" d="M437.4,267.8h-16.2v-16.3C429.8,252.4,436.6,259.2,437.4,267.8z"/>
		<path class="st19" d="M417.3,272.5v14.9c-7.9-1-14.2-7.1-15.5-14.9H417.3z"/>
	</g>
	<path class="st20" d="M437.5,269.5c0,1-0.1,2-0.3,3c-1.3,8-7.9,14.2-16.1,14.9c-0.5,0.1-1.1,0.1-1.7,0.1c-0.8,0-1.5,0-2.2-0.1
		v-14.9h-15.5c-0.2-1-0.3-2-0.3-3c0-0.6,0-1.1,0.1-1.7c0.8-8.4,7.3-15.2,15.7-16.2c0.7-0.1,1.5-0.1,2.2-0.1c0.6,0,1.1,0,1.7,0.1
		v16.3h16.2C437.5,268.4,437.5,268.9,437.5,269.5z"/>
	<g>
		<rect x="417.3" y="249.2" class="st21" width="3.9" height="42.3"/>
		<rect x="397.2" y="267.8" class="st21" width="44" height="4.7"/>
	</g>
	<path class="st3" d="M419.5,242.5c-14.9,0-27,12.1-27,27s12.1,27,27,27s27-12.1,27-27S434.4,242.5,419.5,242.5z M419.5,287.5
		c-9.9,0-18-8-18-18s8-18,18-18s18,8,18,18S429.4,287.5,419.5,287.5z"/>
	<rect x="149.5" y="307.5" class="st22" width="198" height="115.2"/>
	<path class="st23" d="M144.8,302.1v126h207.5v-126H144.8z M347.5,422.8h-198V307.5h198V422.8z"/>
	<path class="st23" d="M144.6,232.8v63.5h207.8v-63.5L144.6,232.8L144.6,232.8z M347.5,291.5h-198v-54h198V291.5z"/>
	<rect x="149.5" y="237.5" class="st22" width="198" height="54"/>
	<g class="st8">
		<g class="st24">
			<path class="st25" d="M237.7,287c-0.9,0-1.8-0.5-2.2-1.3c-0.6-1.2-0.2-2.7,1-3.4l69.3-36.5c1.2-0.6,2.7-0.2,3.4,1
				c0.6,1.2,0.2,2.7-1,3.4l-69.3,36.5C238.5,286.9,238.1,287,237.7,287z"/>
		</g>
		<g class="st24">
			<path class="st25" d="M204,287c-0.9,0-1.8-0.5-2.2-1.3c-0.7-1.2-0.2-2.7,1-3.4l35.5-19c1.2-0.7,2.7-0.2,3.4,1s0.2,2.7-1,3.4
				l-35.5,19C204.8,286.9,204.4,287,204,287z"/>
		</g>
		<g class="st24">
			<path class="st25" d="M219.7,263.3c-0.9,0-1.8-0.5-2.2-1.3c-0.6-1.2-0.2-2.7,1-3.4l24.2-12.8c1.2-0.6,2.7-0.2,3.4,1
				c0.6,1.2,0.2,2.7-1,3.4L220.8,263C220.5,263.2,220.1,263.3,219.7,263.3z"/>
		</g>
	</g>
	<g class="st8">
		<g class="st24">
			<path class="st25" d="M178,409c-0.9,0-1.7-0.5-2.2-1.3c-0.7-1.2-0.2-2.7,1-3.4l153.3-85.5c1.2-0.7,2.7-0.2,3.4,1s0.2,2.7-1,3.4
				l-153.3,85.5C178.8,408.9,178.4,409,178,409z"/>
		</g>
		<g class="st24">
			<path class="st25" d="M229,397.8c-0.9,0-1.7-0.5-2.2-1.3c-0.7-1.2-0.2-2.7,1-3.4l44.7-24.8c1.2-0.7,2.7-0.2,3.4,1
				c0.7,1.2,0.2,2.7-1,3.4l-44.7,24.8C229.8,397.6,229.4,397.8,229,397.8z"/>
		</g>
		<g class="st24">
			<path class="st25" d="M283.5,368.5c-0.9,0-1.7-0.5-2.2-1.3c-0.7-1.2-0.3-2.7,0.9-3.4l15-8.5c1.2-0.7,2.7-0.3,3.4,0.9
				c0.7,1.2,0.3,2.7-0.9,3.4l-15,8.5C284.3,368.4,283.9,368.5,283.5,368.5z"/>
		</g>
		<g class="st24">
			<path class="st25" d="M187.3,386.5c-0.9,0-1.8-0.5-2.2-1.3c-0.7-1.2-0.2-2.7,1-3.4l54-29c1.2-0.7,2.7-0.2,3.4,1s0.2,2.7-1,3.4
				l-54,29C188.1,386.4,187.7,386.5,187.3,386.5z"/>
		</g>
	</g>
</g>
</svg>
